<mxfile host="Electron" modified="2024-05-23T04:31:06.082Z" agent="Mozilla/5.0 (Windows NT 10.0; Win64; x64) AppleWebKit/537.36 (KHTML, like Gecko) draw.io/24.4.0 Chrome/120.0.6099.109 Electron/28.1.0 Safari/537.36" etag="gUDI0mK9BidByyWlQ0Sh" version="24.4.0" type="device">
  <diagram id="R2lEEEUBdFMjLlhIrx00" name="main">
    <mxGraphModel dx="2963" dy="1194" grid="1" gridSize="10" guides="1" tooltips="1" connect="1" arrows="1" fold="1" page="1" pageScale="1" pageWidth="850" pageHeight="1100" math="0" shadow="0" extFonts="Permanent Marker^https://fonts.googleapis.com/css?family=Permanent+Marker">
      <root>
        <mxCell id="0" />
        <mxCell id="1" parent="0" />
        <mxCell id="zVHyQVCnVJjG2MhTdaHv-12" style="rounded=0;orthogonalLoop=1;jettySize=auto;html=1;exitX=0.5;exitY=1;exitDx=0;exitDy=0;" edge="1" parent="1" source="zVHyQVCnVJjG2MhTdaHv-1" target="zVHyQVCnVJjG2MhTdaHv-5">
          <mxGeometry relative="1" as="geometry" />
        </mxCell>
        <mxCell id="zVHyQVCnVJjG2MhTdaHv-20" value="Get data" style="edgeLabel;html=1;align=center;verticalAlign=middle;resizable=0;points=[];" vertex="1" connectable="0" parent="zVHyQVCnVJjG2MhTdaHv-12">
          <mxGeometry x="0.1933" y="1" relative="1" as="geometry">
            <mxPoint x="-1" y="-6" as="offset" />
          </mxGeometry>
        </mxCell>
        <mxCell id="zVHyQVCnVJjG2MhTdaHv-1" value="Customer&lt;div&gt;(DIM)&lt;/div&gt;" style="rounded=0;whiteSpace=wrap;html=1;" vertex="1" parent="1">
          <mxGeometry x="2100" y="330" width="130" height="60" as="geometry" />
        </mxCell>
        <mxCell id="zVHyQVCnVJjG2MhTdaHv-14" style="edgeStyle=orthogonalEdgeStyle;rounded=0;orthogonalLoop=1;jettySize=auto;html=1;exitX=0.5;exitY=1;exitDx=0;exitDy=0;entryX=0;entryY=0.5;entryDx=0;entryDy=0;" edge="1" parent="1" source="zVHyQVCnVJjG2MhTdaHv-2" target="zVHyQVCnVJjG2MhTdaHv-1">
          <mxGeometry relative="1" as="geometry" />
        </mxCell>
        <mxCell id="zVHyQVCnVJjG2MhTdaHv-19" value="Get data" style="edgeLabel;html=1;align=center;verticalAlign=middle;resizable=0;points=[];" vertex="1" connectable="0" parent="zVHyQVCnVJjG2MhTdaHv-14">
          <mxGeometry x="-0.1135" y="-1" relative="1" as="geometry">
            <mxPoint x="1" y="-60" as="offset" />
          </mxGeometry>
        </mxCell>
        <mxCell id="zVHyQVCnVJjG2MhTdaHv-17" style="edgeStyle=orthogonalEdgeStyle;rounded=0;orthogonalLoop=1;jettySize=auto;html=1;exitX=0.5;exitY=0;exitDx=0;exitDy=0;entryX=0;entryY=0.5;entryDx=0;entryDy=0;" edge="1" parent="1" source="zVHyQVCnVJjG2MhTdaHv-2" target="zVHyQVCnVJjG2MhTdaHv-13">
          <mxGeometry relative="1" as="geometry" />
        </mxCell>
        <mxCell id="zVHyQVCnVJjG2MhTdaHv-27" value="Get data" style="edgeLabel;html=1;align=center;verticalAlign=middle;resizable=0;points=[];" vertex="1" connectable="0" parent="zVHyQVCnVJjG2MhTdaHv-17">
          <mxGeometry x="-0.2296" relative="1" as="geometry">
            <mxPoint as="offset" />
          </mxGeometry>
        </mxCell>
        <mxCell id="zVHyQVCnVJjG2MhTdaHv-2" value="Log_BHD_MovideID&lt;div&gt;(FACT)&lt;/div&gt;" style="rounded=0;whiteSpace=wrap;html=1;fillColor=#D9D9D9;" vertex="1" parent="1">
          <mxGeometry x="1920" y="190" width="130" height="60" as="geometry" />
        </mxCell>
        <mxCell id="zVHyQVCnVJjG2MhTdaHv-15" style="edgeStyle=orthogonalEdgeStyle;rounded=0;orthogonalLoop=1;jettySize=auto;html=1;exitX=0.5;exitY=1;exitDx=0;exitDy=0;" edge="1" parent="1" source="zVHyQVCnVJjG2MhTdaHv-3" target="zVHyQVCnVJjG2MhTdaHv-1">
          <mxGeometry relative="1" as="geometry" />
        </mxCell>
        <mxCell id="zVHyQVCnVJjG2MhTdaHv-21" value="Get data" style="edgeLabel;html=1;align=center;verticalAlign=middle;resizable=0;points=[];" vertex="1" connectable="0" parent="zVHyQVCnVJjG2MhTdaHv-15">
          <mxGeometry x="-0.0772" y="-3" relative="1" as="geometry">
            <mxPoint as="offset" />
          </mxGeometry>
        </mxCell>
        <mxCell id="zVHyQVCnVJjG2MhTdaHv-18" style="edgeStyle=orthogonalEdgeStyle;rounded=0;orthogonalLoop=1;jettySize=auto;html=1;exitX=0.5;exitY=0;exitDx=0;exitDy=0;entryX=1;entryY=0.5;entryDx=0;entryDy=0;" edge="1" parent="1" source="zVHyQVCnVJjG2MhTdaHv-3" target="zVHyQVCnVJjG2MhTdaHv-13">
          <mxGeometry relative="1" as="geometry" />
        </mxCell>
        <mxCell id="zVHyQVCnVJjG2MhTdaHv-26" value="Get data" style="edgeLabel;html=1;align=center;verticalAlign=middle;resizable=0;points=[];" vertex="1" connectable="0" parent="zVHyQVCnVJjG2MhTdaHv-18">
          <mxGeometry x="-0.2667" relative="1" as="geometry">
            <mxPoint as="offset" />
          </mxGeometry>
        </mxCell>
        <mxCell id="zVHyQVCnVJjG2MhTdaHv-3" value="Log_FimPlus_MovieID&lt;div&gt;(FACT)&lt;/div&gt;" style="rounded=0;whiteSpace=wrap;html=1;strokeColor=default;align=center;verticalAlign=middle;fontFamily=Helvetica;fontSize=12;fontColor=default;fillColor=#D9D9D9;" vertex="1" parent="1">
          <mxGeometry x="2100" y="190" width="130" height="60" as="geometry" />
        </mxCell>
        <mxCell id="zVHyQVCnVJjG2MhTdaHv-23" style="edgeStyle=orthogonalEdgeStyle;rounded=0;orthogonalLoop=1;jettySize=auto;html=1;exitX=0.5;exitY=1;exitDx=0;exitDy=0;entryX=1;entryY=0.5;entryDx=0;entryDy=0;" edge="1" parent="1" source="zVHyQVCnVJjG2MhTdaHv-4" target="zVHyQVCnVJjG2MhTdaHv-1">
          <mxGeometry relative="1" as="geometry" />
        </mxCell>
        <mxCell id="zVHyQVCnVJjG2MhTdaHv-24" value="Get data" style="edgeLabel;html=1;align=center;verticalAlign=middle;resizable=0;points=[];" vertex="1" connectable="0" parent="zVHyQVCnVJjG2MhTdaHv-23">
          <mxGeometry x="0.0604" y="1" relative="1" as="geometry">
            <mxPoint as="offset" />
          </mxGeometry>
        </mxCell>
        <mxCell id="zVHyQVCnVJjG2MhTdaHv-4" value="Log_Get_DRM_List&lt;div&gt;(FACT)&lt;/div&gt;" style="rounded=0;whiteSpace=wrap;html=1;strokeColor=default;align=center;verticalAlign=middle;fontFamily=Helvetica;fontSize=12;fontColor=default;fillColor=#D9D9D9;" vertex="1" parent="1">
          <mxGeometry x="2270" y="190" width="130" height="60" as="geometry" />
        </mxCell>
        <mxCell id="zVHyQVCnVJjG2MhTdaHv-5" value="CustomerService&lt;div&gt;(DIM)&lt;/div&gt;" style="rounded=0;whiteSpace=wrap;html=1;" vertex="1" parent="1">
          <mxGeometry x="2095" y="450" width="140" height="60" as="geometry" />
        </mxCell>
        <mxCell id="zVHyQVCnVJjG2MhTdaHv-13" value="MV_PropertiesShowVN&lt;div&gt;(DIM)&lt;/div&gt;" style="rounded=0;whiteSpace=wrap;html=1;" vertex="1" parent="1">
          <mxGeometry x="2010" y="50" width="130" height="60" as="geometry" />
        </mxCell>
        <mxCell id="pQRdqB5m7yi-kOXNTIrZ-1" value="&lt;div&gt;Customer (DIM)&lt;/div&gt;" style="swimlane;fontStyle=1;align=center;verticalAlign=top;childLayout=stackLayout;horizontal=1;startSize=26;horizontalStack=0;resizeParent=1;resizeParentMax=0;resizeLast=0;collapsible=1;marginBottom=0;whiteSpace=wrap;html=1;" vertex="1" parent="1">
          <mxGeometry x="1010" y="380" width="150" height="94" as="geometry">
            <mxRectangle x="1320" y="480" width="100" height="30" as="alternateBounds" />
          </mxGeometry>
        </mxCell>
        <mxCell id="pQRdqB5m7yi-kOXNTIrZ-2" value="customerid (PK): integer&lt;div&gt;mac (PK): int&lt;/div&gt;" style="text;strokeColor=none;fillColor=none;align=left;verticalAlign=top;spacingLeft=4;spacingRight=4;overflow=hidden;rotatable=0;points=[[0,0.5],[1,0.5]];portConstraint=eastwest;whiteSpace=wrap;html=1;" vertex="1" parent="pQRdqB5m7yi-kOXNTIrZ-1">
          <mxGeometry y="26" width="150" height="34" as="geometry" />
        </mxCell>
        <mxCell id="pQRdqB5m7yi-kOXNTIrZ-3" value="" style="line;strokeWidth=1;fillColor=none;align=left;verticalAlign=middle;spacingTop=-1;spacingLeft=3;spacingRight=3;rotatable=0;labelPosition=right;points=[];portConstraint=eastwest;strokeColor=inherit;" vertex="1" parent="pQRdqB5m7yi-kOXNTIrZ-1">
          <mxGeometry y="60" width="150" height="8" as="geometry" />
        </mxCell>
        <mxCell id="pQRdqB5m7yi-kOXNTIrZ-4" value="created_date: timestamp" style="text;strokeColor=none;fillColor=none;align=left;verticalAlign=top;spacingLeft=4;spacingRight=4;overflow=hidden;rotatable=0;points=[[0,0.5],[1,0.5]];portConstraint=eastwest;whiteSpace=wrap;html=1;" vertex="1" parent="pQRdqB5m7yi-kOXNTIrZ-1">
          <mxGeometry y="68" width="150" height="26" as="geometry" />
        </mxCell>
        <mxCell id="pQRdqB5m7yi-kOXNTIrZ-5" value="Log_BHD_MovideID&amp;nbsp;&lt;span style=&quot;background-color: initial;&quot;&gt;(FACT)&lt;/span&gt;" style="swimlane;fontStyle=1;align=center;verticalAlign=top;childLayout=stackLayout;horizontal=1;startSize=26;horizontalStack=0;resizeParent=1;resizeParentMax=0;resizeLast=0;collapsible=1;marginBottom=0;whiteSpace=wrap;html=1;" vertex="1" parent="1">
          <mxGeometry x="750" y="200" width="180" height="86" as="geometry">
            <mxRectangle x="1320" y="480" width="100" height="30" as="alternateBounds" />
          </mxGeometry>
        </mxCell>
        <mxCell id="pQRdqB5m7yi-kOXNTIrZ-6" value="CustomerID (PK): integer" style="text;strokeColor=none;fillColor=none;align=left;verticalAlign=top;spacingLeft=4;spacingRight=4;overflow=hidden;rotatable=0;points=[[0,0.5],[1,0.5]];portConstraint=eastwest;whiteSpace=wrap;html=1;" vertex="1" parent="pQRdqB5m7yi-kOXNTIrZ-5">
          <mxGeometry y="26" width="180" height="26" as="geometry" />
        </mxCell>
        <mxCell id="pQRdqB5m7yi-kOXNTIrZ-7" value="" style="line;strokeWidth=1;fillColor=none;align=left;verticalAlign=middle;spacingTop=-1;spacingLeft=3;spacingRight=3;rotatable=0;labelPosition=right;points=[];portConstraint=eastwest;strokeColor=inherit;" vertex="1" parent="pQRdqB5m7yi-kOXNTIrZ-5">
          <mxGeometry y="52" width="180" height="8" as="geometry" />
        </mxCell>
        <mxCell id="pQRdqB5m7yi-kOXNTIrZ-8" value="MovideID (FK): integer" style="text;strokeColor=none;fillColor=none;align=left;verticalAlign=top;spacingLeft=4;spacingRight=4;overflow=hidden;rotatable=0;points=[[0,0.5],[1,0.5]];portConstraint=eastwest;whiteSpace=wrap;html=1;" vertex="1" parent="pQRdqB5m7yi-kOXNTIrZ-5">
          <mxGeometry y="60" width="180" height="26" as="geometry" />
        </mxCell>
        <mxCell id="pQRdqB5m7yi-kOXNTIrZ-9" value="MV_PropertiesShowVN&amp;nbsp;&lt;span style=&quot;background-color: initial;&quot;&gt;(DIM)&lt;/span&gt;" style="swimlane;fontStyle=1;align=center;verticalAlign=top;childLayout=stackLayout;horizontal=1;startSize=26;horizontalStack=0;resizeParent=1;resizeParentMax=0;resizeLast=0;collapsible=1;marginBottom=0;whiteSpace=wrap;html=1;" vertex="1" parent="1">
          <mxGeometry x="990" y="50" width="190" height="86" as="geometry">
            <mxRectangle x="1320" y="480" width="100" height="30" as="alternateBounds" />
          </mxGeometry>
        </mxCell>
        <mxCell id="pQRdqB5m7yi-kOXNTIrZ-10" value="id (PK): int" style="text;strokeColor=none;fillColor=none;align=left;verticalAlign=top;spacingLeft=4;spacingRight=4;overflow=hidden;rotatable=0;points=[[0,0.5],[1,0.5]];portConstraint=eastwest;whiteSpace=wrap;html=1;" vertex="1" parent="pQRdqB5m7yi-kOXNTIrZ-9">
          <mxGeometry y="26" width="190" height="26" as="geometry" />
        </mxCell>
        <mxCell id="pQRdqB5m7yi-kOXNTIrZ-11" value="" style="line;strokeWidth=1;fillColor=none;align=left;verticalAlign=middle;spacingTop=-1;spacingLeft=3;spacingRight=3;rotatable=0;labelPosition=right;points=[];portConstraint=eastwest;strokeColor=inherit;" vertex="1" parent="pQRdqB5m7yi-kOXNTIrZ-9">
          <mxGeometry y="52" width="190" height="8" as="geometry" />
        </mxCell>
        <mxCell id="pQRdqB5m7yi-kOXNTIrZ-12" value="isDRM: bool" style="text;strokeColor=none;fillColor=none;align=left;verticalAlign=top;spacingLeft=4;spacingRight=4;overflow=hidden;rotatable=0;points=[[0,0.5],[1,0.5]];portConstraint=eastwest;whiteSpace=wrap;html=1;" vertex="1" parent="pQRdqB5m7yi-kOXNTIrZ-9">
          <mxGeometry y="60" width="190" height="26" as="geometry" />
        </mxCell>
        <mxCell id="pQRdqB5m7yi-kOXNTIrZ-13" value="&lt;div&gt;CustomerService (DIM)&lt;/div&gt;" style="swimlane;fontStyle=1;align=center;verticalAlign=top;childLayout=stackLayout;horizontal=1;startSize=26;horizontalStack=0;resizeParent=1;resizeParentMax=0;resizeLast=0;collapsible=1;marginBottom=0;whiteSpace=wrap;html=1;" vertex="1" parent="1">
          <mxGeometry x="1005" y="550" width="160" height="140" as="geometry">
            <mxRectangle x="1320" y="480" width="100" height="30" as="alternateBounds" />
          </mxGeometry>
        </mxCell>
        <mxCell id="pQRdqB5m7yi-kOXNTIrZ-14" value="CustomerID (PK): int" style="text;strokeColor=none;fillColor=none;align=left;verticalAlign=top;spacingLeft=4;spacingRight=4;overflow=hidden;rotatable=0;points=[[0,0.5],[1,0.5]];portConstraint=eastwest;whiteSpace=wrap;html=1;" vertex="1" parent="pQRdqB5m7yi-kOXNTIrZ-13">
          <mxGeometry y="26" width="160" height="26" as="geometry" />
        </mxCell>
        <mxCell id="pQRdqB5m7yi-kOXNTIrZ-15" value="" style="line;strokeWidth=1;fillColor=none;align=left;verticalAlign=middle;spacingTop=-1;spacingLeft=3;spacingRight=3;rotatable=0;labelPosition=right;points=[];portConstraint=eastwest;strokeColor=inherit;" vertex="1" parent="pQRdqB5m7yi-kOXNTIrZ-13">
          <mxGeometry y="52" width="160" height="8" as="geometry" />
        </mxCell>
        <mxCell id="pQRdqB5m7yi-kOXNTIrZ-16" value="ServiceID: int" style="text;strokeColor=none;fillColor=none;align=left;verticalAlign=top;spacingLeft=4;spacingRight=4;overflow=hidden;rotatable=0;points=[[0,0.5],[1,0.5]];portConstraint=eastwest;whiteSpace=wrap;html=1;" vertex="1" parent="pQRdqB5m7yi-kOXNTIrZ-13">
          <mxGeometry y="60" width="160" height="26" as="geometry" />
        </mxCell>
        <mxCell id="pQRdqB5m7yi-kOXNTIrZ-17" value="Amount: float" style="text;strokeColor=none;fillColor=none;align=left;verticalAlign=top;spacingLeft=4;spacingRight=4;overflow=hidden;rotatable=0;points=[[0,0.5],[1,0.5]];portConstraint=eastwest;whiteSpace=wrap;html=1;" vertex="1" parent="pQRdqB5m7yi-kOXNTIrZ-13">
          <mxGeometry y="86" width="160" height="26" as="geometry" />
        </mxCell>
        <mxCell id="pQRdqB5m7yi-kOXNTIrZ-18" value="Date: timestamp" style="text;strokeColor=none;fillColor=none;align=left;verticalAlign=top;spacingLeft=4;spacingRight=4;overflow=hidden;rotatable=0;points=[[0,0.5],[1,0.5]];portConstraint=eastwest;whiteSpace=wrap;html=1;" vertex="1" parent="pQRdqB5m7yi-kOXNTIrZ-13">
          <mxGeometry y="112" width="160" height="28" as="geometry" />
        </mxCell>
        <mxCell id="pQRdqB5m7yi-kOXNTIrZ-19" value="Log_Get_DRM_List&amp;nbsp;&lt;span style=&quot;background-color: initial;&quot;&gt;(FACT)&lt;/span&gt;" style="swimlane;fontStyle=1;align=center;verticalAlign=top;childLayout=stackLayout;horizontal=1;startSize=26;horizontalStack=0;resizeParent=1;resizeParentMax=0;resizeLast=0;collapsible=1;marginBottom=0;whiteSpace=wrap;html=1;" vertex="1" parent="1">
          <mxGeometry x="1500" y="196" width="170" height="94" as="geometry">
            <mxRectangle x="1320" y="480" width="100" height="30" as="alternateBounds" />
          </mxGeometry>
        </mxCell>
        <mxCell id="pQRdqB5m7yi-kOXNTIrZ-20" value="CustomerID (PK): integer&lt;div&gt;Mac (PK): int&lt;/div&gt;" style="text;strokeColor=none;fillColor=none;align=left;verticalAlign=top;spacingLeft=4;spacingRight=4;overflow=hidden;rotatable=0;points=[[0,0.5],[1,0.5]];portConstraint=eastwest;whiteSpace=wrap;html=1;" vertex="1" parent="pQRdqB5m7yi-kOXNTIrZ-19">
          <mxGeometry y="26" width="170" height="34" as="geometry" />
        </mxCell>
        <mxCell id="pQRdqB5m7yi-kOXNTIrZ-21" value="" style="line;strokeWidth=1;fillColor=none;align=left;verticalAlign=middle;spacingTop=-1;spacingLeft=3;spacingRight=3;rotatable=0;labelPosition=right;points=[];portConstraint=eastwest;strokeColor=inherit;" vertex="1" parent="pQRdqB5m7yi-kOXNTIrZ-19">
          <mxGeometry y="60" width="170" height="8" as="geometry" />
        </mxCell>
        <mxCell id="pQRdqB5m7yi-kOXNTIrZ-22" value="Date: timestamp" style="text;strokeColor=none;fillColor=none;align=left;verticalAlign=top;spacingLeft=4;spacingRight=4;overflow=hidden;rotatable=0;points=[[0,0.5],[1,0.5]];portConstraint=eastwest;whiteSpace=wrap;html=1;" vertex="1" parent="pQRdqB5m7yi-kOXNTIrZ-19">
          <mxGeometry y="68" width="170" height="26" as="geometry" />
        </mxCell>
        <mxCell id="pQRdqB5m7yi-kOXNTIrZ-23" value="Log_FimPlus_MovieID&amp;nbsp;&lt;span style=&quot;background-color: initial;&quot;&gt;(FACT)&lt;/span&gt;" style="swimlane;fontStyle=1;align=center;verticalAlign=top;childLayout=stackLayout;horizontal=1;startSize=26;horizontalStack=0;resizeParent=1;resizeParentMax=0;resizeLast=0;collapsible=1;marginBottom=0;whiteSpace=wrap;html=1;" vertex="1" parent="1">
          <mxGeometry x="1230" y="200" width="190" height="86" as="geometry">
            <mxRectangle x="1320" y="480" width="100" height="30" as="alternateBounds" />
          </mxGeometry>
        </mxCell>
        <mxCell id="pQRdqB5m7yi-kOXNTIrZ-24" value="CustomerID (PK): integer" style="text;strokeColor=none;fillColor=none;align=left;verticalAlign=top;spacingLeft=4;spacingRight=4;overflow=hidden;rotatable=0;points=[[0,0.5],[1,0.5]];portConstraint=eastwest;whiteSpace=wrap;html=1;" vertex="1" parent="pQRdqB5m7yi-kOXNTIrZ-23">
          <mxGeometry y="26" width="190" height="26" as="geometry" />
        </mxCell>
        <mxCell id="pQRdqB5m7yi-kOXNTIrZ-25" value="" style="line;strokeWidth=1;fillColor=none;align=left;verticalAlign=middle;spacingTop=-1;spacingLeft=3;spacingRight=3;rotatable=0;labelPosition=right;points=[];portConstraint=eastwest;strokeColor=inherit;" vertex="1" parent="pQRdqB5m7yi-kOXNTIrZ-23">
          <mxGeometry y="52" width="190" height="8" as="geometry" />
        </mxCell>
        <mxCell id="pQRdqB5m7yi-kOXNTIrZ-26" value="MovideID (FK): integer" style="text;strokeColor=none;fillColor=none;align=left;verticalAlign=top;spacingLeft=4;spacingRight=4;overflow=hidden;rotatable=0;points=[[0,0.5],[1,0.5]];portConstraint=eastwest;whiteSpace=wrap;html=1;" vertex="1" parent="pQRdqB5m7yi-kOXNTIrZ-23">
          <mxGeometry y="60" width="190" height="26" as="geometry" />
        </mxCell>
        <mxCell id="pQRdqB5m7yi-kOXNTIrZ-27" value="" style="edgeStyle=elbowEdgeStyle;fontSize=12;html=1;endArrow=ERmandOne;startArrow=ERmandOne;rounded=0;exitX=0;exitY=0.5;exitDx=0;exitDy=0;entryX=0;entryY=0.5;entryDx=0;entryDy=0;" edge="1" parent="1" source="pQRdqB5m7yi-kOXNTIrZ-8" target="pQRdqB5m7yi-kOXNTIrZ-10">
          <mxGeometry width="100" height="100" relative="1" as="geometry">
            <mxPoint x="790" y="180" as="sourcePoint" />
            <mxPoint x="890" y="80" as="targetPoint" />
            <Array as="points">
              <mxPoint x="730" y="180" />
            </Array>
          </mxGeometry>
        </mxCell>
        <mxCell id="pQRdqB5m7yi-kOXNTIrZ-28" value="" style="edgeStyle=elbowEdgeStyle;fontSize=12;html=1;endArrow=ERmandOne;startArrow=ERmandOne;rounded=0;exitX=1;exitY=0.5;exitDx=0;exitDy=0;entryX=1;entryY=0.5;entryDx=0;entryDy=0;" edge="1" parent="1" source="pQRdqB5m7yi-kOXNTIrZ-26" target="pQRdqB5m7yi-kOXNTIrZ-10">
          <mxGeometry width="100" height="100" relative="1" as="geometry">
            <mxPoint x="1340" y="200" as="sourcePoint" />
            <mxPoint x="1450" y="50" as="targetPoint" />
            <Array as="points">
              <mxPoint x="1450" y="180" />
            </Array>
          </mxGeometry>
        </mxCell>
        <mxCell id="pQRdqB5m7yi-kOXNTIrZ-29" value="" style="edgeStyle=elbowEdgeStyle;fontSize=12;html=1;endArrow=ERmandOne;startArrow=ERmandOne;rounded=0;entryX=1;entryY=0.5;entryDx=0;entryDy=0;exitX=0.002;exitY=0.366;exitDx=0;exitDy=0;exitPerimeter=0;" edge="1" parent="1" source="pQRdqB5m7yi-kOXNTIrZ-2" target="pQRdqB5m7yi-kOXNTIrZ-6">
          <mxGeometry width="100" height="100" relative="1" as="geometry">
            <mxPoint x="1150" y="320" as="sourcePoint" />
            <mxPoint x="1250" y="220" as="targetPoint" />
          </mxGeometry>
        </mxCell>
        <mxCell id="pQRdqB5m7yi-kOXNTIrZ-30" value="" style="edgeStyle=elbowEdgeStyle;fontSize=12;html=1;endArrow=ERmandOne;startArrow=ERmandOne;rounded=0;entryX=0;entryY=0.5;entryDx=0;entryDy=0;exitX=1;exitY=0.384;exitDx=0;exitDy=0;exitPerimeter=0;" edge="1" parent="1" source="pQRdqB5m7yi-kOXNTIrZ-2" target="pQRdqB5m7yi-kOXNTIrZ-24">
          <mxGeometry width="100" height="100" relative="1" as="geometry">
            <mxPoint x="1080.03" y="439" as="sourcePoint" />
            <mxPoint x="1130.03" y="260" as="targetPoint" />
          </mxGeometry>
        </mxCell>
        <mxCell id="pQRdqB5m7yi-kOXNTIrZ-31" value="" style="edgeStyle=elbowEdgeStyle;fontSize=12;html=1;endArrow=ERmandOne;startArrow=ERmandOne;rounded=0;entryX=1;entryY=0.5;entryDx=0;entryDy=0;exitX=1.002;exitY=0.724;exitDx=0;exitDy=0;exitPerimeter=0;" edge="1" parent="1" source="pQRdqB5m7yi-kOXNTIrZ-2" target="pQRdqB5m7yi-kOXNTIrZ-20">
          <mxGeometry width="100" height="100" relative="1" as="geometry">
            <mxPoint x="1360" y="470" as="sourcePoint" />
            <mxPoint x="1430" y="290" as="targetPoint" />
            <Array as="points">
              <mxPoint x="1700" y="340" />
            </Array>
          </mxGeometry>
        </mxCell>
        <mxCell id="pQRdqB5m7yi-kOXNTIrZ-32" value="" style="edgeStyle=elbowEdgeStyle;fontSize=12;html=1;endArrow=ERmandOne;startArrow=ERmandOne;rounded=0;entryX=0;entryY=0.706;entryDx=0;entryDy=0;exitX=0;exitY=0.5;exitDx=0;exitDy=0;entryPerimeter=0;" edge="1" parent="1" source="pQRdqB5m7yi-kOXNTIrZ-14" target="pQRdqB5m7yi-kOXNTIrZ-2">
          <mxGeometry width="100" height="100" relative="1" as="geometry">
            <mxPoint x="920" y="589" as="sourcePoint" />
            <mxPoint x="840" y="410" as="targetPoint" />
            <Array as="points">
              <mxPoint x="970" y="510" />
            </Array>
          </mxGeometry>
        </mxCell>
      </root>
    </mxGraphModel>
  </diagram>
</mxfile>
